<svg width="20" height="20" viewBox="0 0 20 20" fill="none" xmlns="http://www.w3.org/2000/svg">
<g clip-path="url(#clip0_55_304)">
<mask id="mask0_55_304" style="mask-type:luminance" maskUnits="userSpaceOnUse" x="0" y="0" width="20" height="20">
<path d="M20 0H0V20H20V0Z" fill="white"/>
</mask>
<g mask="url(#mask0_55_304)">
<path d="M10.8876 17.6787L3.57811 17.6843L3.57532 17.4883L8.95714 17.2741C9.9788 17.2351 10.9705 17.1821 11.9301 16.8558C13.8982 16.1974 15.4666 14.8577 15.9276 13.1979C16.4234 11.4195 15.2853 9.69003 13.1415 9.54081C14.9576 9.00794 16.5064 7.85792 16.9179 6.37529C17.4542 4.45183 16.4848 3.4804 14.8501 3.12401C17.5692 3.0808 19.6971 3.99437 18.9731 6.59773C18.5617 8.07901 16.9758 9.20673 15.1723 9.69838C17.291 9.85664 18.4522 11.8749 17.8901 13.6331C17.3064 15.4652 15.8285 16.6026 13.8605 17.2588C12.9002 17.5859 11.9099 17.6397 10.8876 17.6787Z" fill="#F15A29"/>
<path d="M7.05186 16.7572L3.59901 16.9211C3.59761 16.8325 3.59412 16.806 3.58437 16.7209L12.3025 14.2054L12.3081 14.0652L3.46999 16.1916C3.4428 16.1086 3.43513 16.0856 3.39819 16.0068L12.6805 10.8523L12.6212 10.7094L3.12831 15.5633C3.06969 15.4816 3.07876 15.4782 3.01323 15.4063L14.0474 5.0026L13.9511 4.88543L2.59411 15.0528C2.54178 15.0143 2.51319 14.9837 2.45598 14.9496L10.5151 3.19351L10.3722 3.15377L1.97272 14.7333C1.92597 14.718 1.87925 14.7027 1.8325 14.6894L6.44372 3.31835L6.32167 3.3051L1.12188 14.5889C1.0577 14.5889 0.993568 14.5903 0.927986 14.5945L0.884064 14.5981L4.23439 2.49475L10.4928 2.51427C13.4532 2.34482 15.7917 3.14471 15.0231 5.9092C14.6102 7.39043 13.0627 8.54189 11.2564 9.03416L11.246 9.07321C13.3898 9.22251 14.5963 10.9479 14.1025 12.7269C13.6409 14.3854 11.9922 15.6804 10.0241 16.3381C9.06314 16.6651 8.07145 16.7196 7.05186 16.7572Z" fill="#F15A29"/>
</g>
</g>
<defs>
<clipPath id="clip0_55_304">
<rect width="20" height="20" fill="white"/>
</clipPath>
</defs>
</svg>
