<svg width="16" height="16" viewBox="0 0 16 16" fill="none" xmlns="http://www.w3.org/2000/svg">
<g clip-path="url(#clip0_55_268)">
<path d="M16 0H0V16H16V0Z" fill="white" fill-opacity="0.2"/>
<path d="M4.83005 3.95058C8.44271 0.554134 12.8254 -0.327359 14.5793 1.98765C16.3331 4.30265 14.7917 8.98171 11.1791 12.3782C7.5664 15.7997 3.1837 16.6799 1.40329 14.3398C-0.322695 12.0009 1.21874 7.34575 4.83005 3.95058Z" fill="#F06321"/>
<path d="M7.14963 2.12926C6.74677 2.40534 6.34394 2.73164 5.94106 3.08429C2.7438 6.04597 1.39959 10.1133 2.98549 12.1476C4.62376 14.1806 8.54622 13.4277 11.8241 10.4397C13.598 8.83325 14.7797 6.97468 15.2631 5.24281C15.3974 3.96275 15.2094 2.83201 14.5916 1.97867C13.1951 0.171525 10.1858 0.320845 7.14963 2.12926Z" fill="#AE282E"/>
<path d="M11.246 2.17553V2.25276C11.2216 2.69034 10.9765 3.23093 10.5354 3.69424C9.87381 4.36352 8.99172 4.62094 8.62296 4.2361C8.2064 3.82425 8.45266 2.92204 9.11422 2.20127C9.80035 1.50626 10.6824 1.2746 11.0499 1.68645C11.1725 1.81514 11.246 1.96961 11.246 2.17553ZM8.69767 13.9945C7.12828 15.2301 5.51105 15.8492 3.94162 15.5918C4.60319 15.6175 5.14349 14.844 5.58456 13.8143C6.02563 12.759 6.27063 11.7808 6.49119 10.8528C6.8097 9.38561 6.83424 8.35598 6.66271 8.12433C6.39313 7.76266 5.80507 7.84113 5.11778 8.25302C4.77473 8.45893 4.33365 8.33024 4.84947 7.66095C5.38854 6.99166 7.4713 5.39446 8.2064 5.13704C9.04069 4.90538 9.97182 5.24004 9.65329 6.19243C9.43158 6.88744 6.54017 14.8182 8.69767 13.9945Z" fill="white"/>
</g>
<defs>
<clipPath id="clip0_55_268">
<rect width="16" height="16" fill="white"/>
</clipPath>
</defs>
</svg>
