<svg width="20" height="16" viewBox="0 0 20 16" fill="none" xmlns="http://www.w3.org/2000/svg">
<path fill-rule="evenodd" clip-rule="evenodd" d="M0.698456 7.99996C0.698456 3.58203 4.86271 0 10.0002 0C15.1377 0 19.3016 3.58203 19.3016 7.99996C19.3016 12.4179 15.1373 16 10.0002 16C4.86304 16 0.698456 12.4185 0.698456 7.99996Z" fill="#003874"/>
<path fill-rule="evenodd" clip-rule="evenodd" d="M8.87072 2.5695L11.0318 1.85547L11.0424 13.5377L8.8631 14.2679L8.87072 2.5695Z" fill="#ED1C24"/>
<path fill-rule="evenodd" clip-rule="evenodd" d="M16.9954 8.80539C16.7926 10.4765 15.8552 12.1648 13.8084 12.1679C12.6134 12.1701 11.68 11.3519 11.0335 10.3509V9.19145C11.8425 9.59301 12.5985 10.0241 13.5159 10.0372C14.6459 10.0539 15.6677 9.61941 16.0903 8.80522L16.9954 8.80539ZM10.1531 9.8547C9.21415 10.9865 8.30675 12.1426 6.60654 12.1426C4.20509 12.1426 3.06604 9.82077 3.06604 7.87976C3.06604 6.0145 3.9562 3.80664 6.29575 3.80664C7.31044 3.80664 8.28721 4.42716 8.86946 5.08352L8.86769 6.66681C8.38122 6.33935 7.29168 6.01805 6.58027 6.00656C5.09667 5.98172 3.78877 6.62479 3.81148 8.08917C3.82691 9.09737 4.82584 9.78268 5.81957 9.78268C7.34169 9.78268 8.2638 8.39223 9.0345 7.33681C9.3434 6.93398 9.64876 6.52843 9.95066 6.12026C10.8067 4.92424 11.7971 3.83236 13.4973 3.83236C15.5001 3.83236 16.6245 5.44666 16.9423 7.10852H16.0376C15.6739 6.56964 14.9745 6.23982 14.2854 6.23982C12.7119 6.23982 11.7717 7.68743 10.9847 8.75321L10.151 9.85452" fill="white"/>
</svg>
